<?xml version="1.0" encoding="UTF-8" standalone="no"?>
<!DOCTYPE svg PUBLIC "-//W3C//DTD SVG 1.1//EN"
 "http://www.w3.org/Graphics/SVG/1.1/DTD/svg11.dtd">
<!-- Generated by graphviz version 5.0.0 (20220707.1540)
 -->
<!-- Title: UmlClassDiagram Pages: 1 -->
<svg width="1881pt" height="229pt"
 viewBox="0.00 0.00 1881.44 229.20" xmlns="http://www.w3.org/2000/svg" xmlns:xlink="http://www.w3.org/1999/xlink">
<g id="graph0" class="graph" transform="scale(1 1) rotate(0) translate(4 225.2)">
<title>UmlClassDiagram</title>
<polygon fill="white" stroke="transparent" points="-4,4 -4,-225.2 1877.44,-225.2 1877.44,4 -4,4"/>
<!-- 3 -->
<g id="node1" class="node">
<title>3</title>
<polygon fill="#f2f2f2" stroke="black" points="0,-0.5 0,-117.3 889.26,-117.3 889.26,-0.5 0,-0.5"/>
<text text-anchor="middle" x="444.63" y="-100.7" font-family="Times,serif" font-size="14.00">BridgeFacet</text>
<polyline fill="none" stroke="black" points="0,-92.5 889.26,-92.5 "/>
<text text-anchor="start" x="8" y="-75.9" font-family="Times,serif" font-size="14.00">External:</text>
<text text-anchor="start" x="8" y="-59.1" font-family="Times,serif" font-size="14.00"> &#160;&#160;&#160;&lt;&lt;payable&gt;&gt; bridge(protocolType: uint16, recipient: address, _tokenIn: address, amountIn: uint256, _payload: bytes)</text>
<text text-anchor="start" x="8" y="-42.3" font-family="Times,serif" font-size="14.00"> &#160;&#160;&#160;sgReceive(_chainId: uint16, _srcAddress: bytes, _nonce: uint256, _token: address, amountLD: uint256, _payload: bytes)</text>
<text text-anchor="start" x="8" y="-25.5" font-family="Times,serif" font-size="14.00">Public:</text>
<text text-anchor="start" x="8" y="-8.7" font-family="Times,serif" font-size="14.00"> &#160;&#160;&#160;getStargateFee(dstChainId: uint16, router: address, recipient: address, dstContractAddr: address, extraGas: uint256, dustAmount: uint256): (fee: uint256)</text>
</g>
<!-- 23 -->
<g id="node4" class="node">
<title>23</title>
<polygon fill="#f2f2f2" stroke="black" points="1015.85,-154.3 1015.85,-220.7 1105.41,-220.7 1105.41,-154.3 1015.85,-154.3"/>
<text text-anchor="middle" x="1060.63" y="-204.1" font-family="Times,serif" font-size="14.00">&lt;&lt;Library&gt;&gt;</text>
<text text-anchor="middle" x="1060.63" y="-187.3" font-family="Times,serif" font-size="14.00">LibMain</text>
<polyline fill="none" stroke="black" points="1015.85,-179.1 1105.41,-179.1 "/>
<text text-anchor="middle" x="1060.63" y="-162.5" font-family="Times,serif" font-size="14.00"> </text>
</g>
<!-- 3&#45;&gt;23 -->
<g id="edge1" class="edge">
<title>3&#45;&gt;23</title>
<path fill="none" stroke="black" stroke-dasharray="5,2" d="M724.24,-117.37C830.67,-139.24 941.66,-162.05 1005.79,-175.23"/>
<polygon fill="black" stroke="black" points="1005.18,-178.68 1015.68,-177.26 1006.58,-171.82 1005.18,-178.68"/>
</g>
<!-- 4 -->
<g id="node2" class="node">
<title>4</title>
<polygon fill="#f2f2f2" stroke="black" points="907.03,-8.9 907.03,-108.9 1214.22,-108.9 1214.22,-8.9 907.03,-8.9"/>
<text text-anchor="middle" x="1060.63" y="-92.3" font-family="Times,serif" font-size="14.00">DepositFacet</text>
<polyline fill="none" stroke="black" points="907.03,-84.1 1214.22,-84.1 "/>
<text text-anchor="start" x="915.03" y="-67.5" font-family="Times,serif" font-size="14.00">External:</text>
<text text-anchor="start" x="915.03" y="-50.7" font-family="Times,serif" font-size="14.00"> &#160;&#160;&#160;deposit(tokenIn: address, amountIn: uint256)</text>
<text text-anchor="start" x="915.03" y="-33.9" font-family="Times,serif" font-size="14.00"> &#160;&#160;&#160;withdraw(tokenOut: address, recipient: address)</text>
<text text-anchor="start" x="915.03" y="-17.1" font-family="Times,serif" font-size="14.00"> &#160;&#160;&#160;balanceOf(token: address, user: address): uint256</text>
</g>
<!-- 4&#45;&gt;23 -->
<g id="edge2" class="edge">
<title>4&#45;&gt;23</title>
<path fill="none" stroke="black" stroke-dasharray="5,2" d="M1060.63,-109.21C1060.63,-120.68 1060.63,-132.79 1060.63,-143.94"/>
<polygon fill="black" stroke="black" points="1057.13,-144.28 1060.63,-154.28 1064.13,-144.28 1057.13,-144.28"/>
</g>
<!-- 7 -->
<g id="node3" class="node">
<title>7</title>
<polygon fill="#f2f2f2" stroke="black" points="1231.82,-8.9 1231.82,-108.9 1873.44,-108.9 1873.44,-8.9 1231.82,-8.9"/>
<text text-anchor="middle" x="1552.63" y="-92.3" font-family="Times,serif" font-size="14.00">SwapFacet</text>
<polyline fill="none" stroke="black" points="1231.82,-84.1 1873.44,-84.1 "/>
<text text-anchor="start" x="1239.82" y="-67.5" font-family="Times,serif" font-size="14.00">External:</text>
<text text-anchor="start" x="1239.82" y="-50.7" font-family="Times,serif" font-size="14.00"> &#160;&#160;&#160;swap(protocolType: uint16, recipient: address, amountIn: uint256, amountOutMin: uint256, _payload: bytes)</text>
<text text-anchor="start" x="1239.82" y="-33.9" font-family="Times,serif" font-size="14.00"> &#160;&#160;&#160;setRouterAddress(protocolType: uint16, _routerAddress: address)</text>
<text text-anchor="start" x="1239.82" y="-17.1" font-family="Times,serif" font-size="14.00"> &#160;&#160;&#160;getRouterAddress(protocolType: uint16): address</text>
</g>
<!-- 7&#45;&gt;23 -->
<g id="edge3" class="edge">
<title>7&#45;&gt;23</title>
<path fill="none" stroke="black" stroke-dasharray="5,2" d="M1362.06,-108.94C1273.66,-131.68 1175.19,-157.02 1115.59,-172.36"/>
<polygon fill="black" stroke="black" points="1114.46,-169.03 1105.65,-174.92 1116.21,-175.81 1114.46,-169.03"/>
</g>
</g>
</svg>
